# xmcd
#
# Track frame offsets: 
#        150
#        19768
#        51498
#        62860
#        95865
#        130120
#        147518
#        175865
#        203898
#        238345
#        257392
#        284615
#        326781
#
# Disc length: 4588 seconds
#
# Revision: 1
# Processed by: cddbd v1.5.2PL0 Copyright (c) Steve Scherf et al.
# Submitted via: ExactAudioCopy v1.0b3
#
DISCID=d111ea0d
DTITLE=The Legendary Rhythm and Blues Revue - Command Performance
DYEAR=2008
DGENRE=Blues
TTITLE0=Can't You See
TTITLE1=I Feel That Old Feeling Coming On
TTITLE2=Whammer Jammer
TTITLE3=Still The Girl In The Band
TTITLE4=See You Hurt No More
TTITLE5=If It Ain't Me
TTITLE6=If I Had A Nickel
TTITLE7=Will It Go Round In Circles
TTITLE8=She's Nineteen Years Old
TTITLE9=Tell Me Mama
TTITLE10=Looking For A Love
TTITLE11=High On The Hog
TTITLE12=Sea Cruise
EXTD=
EXTT0=
EXTT1=
EXTT2=
EXTT3=
EXTT4=
EXTT5=
EXTT6=
EXTT7=
EXTT8=
EXTT9=
EXTT10=
EXTT11=
EXTT12=
PLAYORDER=
